<?xml version="1.0" encoding="UTF-8"?>
<!DOCTYPE svg PUBLIC "-//W3C//DTD SVG 1.1//EN" "http://www.w3.org/Graphics/SVG/1.1/DTD/svg11.dtd">
<!-- Creator: CorelDRAW 2018 (64 Bit Versão de avaliação) -->
<svg xmlns="http://www.w3.org/2000/svg" xml:space="preserve" width="64px" height="244px" version="1.1" style="shape-rendering:geometricPrecision; text-rendering:geometricPrecision; image-rendering:optimizeQuality; fill-rule:evenodd; clip-rule:evenodd"
viewBox="0 0 10.47 39.93"
 xmlns:xlink="http://www.w3.org/1999/xlink">
 <defs>
  <style type="text/css">
   <![CDATA[
    .fil0 {fill:none}
    .fil1 {fill:black}
    .fil2 {fill:#A2A2A2}
   ]]>
  </style>
 </defs>
 <g id="Camada_x0020_1">
  <metadata id="CorelCorpID_0Corel-Layer"/>
  <g id="_2389119407872">
   <rect class="fil0" width="10.47" height="39.93"/>
   <path class="fil1" d="M6.84 17.15l0.23 0.23c0.24,0.24 0.24,0.64 0,0.88l-1.77 1.77 1.77 1.77c0.24,0.24 0.24,0.63 0,0.88l-0.23 0.22c-0.24,0.24 -0.63,0.24 -0.87,0l-2.21 -2.2 -0.23 -0.23 0 0 -0.01 -0.01 0 0 -0.01 -0.02 0 0 -0.01 -0.01 0 0 -0.01 -0.01 0 0 -0.01 -0.01 0 0 -0.01 -0.01 0 0 -0.01 -0.02 0 0 -0.01 -0.01 0 0 -0.01 -0.01 0 0 -0.01 -0.02c-0.08,-0.15 -0.1,-0.32 -0.06,-0.49l0 0c0.02,-0.05 0.04,-0.09 0.06,-0.14l0.01 -0.01 0 0 0.01 -0.01 0 0 0.01 -0.01 0 -0.01 0.01 -0.01 0 0 0.01 -0.01 0 0 0.01 -0.01 0 0 0.01 -0.01 0 0 0.01 -0.02 0 0 0.01 -0.01 0 0 0.01 -0.01 0 0 0.23 -0.23 2.21 -2.21c0.24,-0.24 0.63,-0.24 0.87,0z"/>
   <path class="fil2" d="M6.78 17.09l0.23 0.23c0.24,0.24 0.24,0.64 0,0.88l-1.77 1.77 1.77 1.77c0.24,0.24 0.24,0.63 0,0.87l-0.23 0.23c-0.24,0.24 -0.64,0.24 -0.88,0l-2.21 -2.21 -0.22 -0.23 0 0 -0.01 -0.01 0 0 -0.02 -0.01 0 0 -0.01 -0.01 0 0 -0.01 -0.01 0 0 -0.01 -0.01 0 0 0 -0.02 0 0 -0.01 -0.01 0 0 -0.01 -0.01 0 0 -0.01 -0.02 0 0 -0.01 -0.01c-0.09,-0.15 -0.11,-0.33 -0.06,-0.49l0 0c0.02,-0.05 0.04,-0.09 0.06,-0.14l0.01 -0.01 0 0 0.01 -0.01 0 0 0.01 -0.02 0 0 0.01 -0.01 0 0 0 -0.01 0 0 0.01 -0.01 0 0 0.01 -0.02 0 0 0.01 -0.01 0 0 0.02 -0.01 0 0 0.01 -0.01 0 0 0.22 -0.23 2.21 -2.21c0.24,-0.24 0.64,-0.24 0.88,0z"/>
  </g>
 </g>
</svg>
