<?xml version="1.0" encoding="UTF-8"?>
<!DOCTYPE svg PUBLIC "-//W3C//DTD SVG 1.1//EN" "http://www.w3.org/Graphics/SVG/1.1/DTD/svg11.dtd">
<!-- Creator: CorelDRAW 2018 (64 Bit Versão de avaliação) -->
<svg xmlns="http://www.w3.org/2000/svg" xml:space="preserve" width="64px" height="64px" version="1.1" style="shape-rendering:geometricPrecision; text-rendering:geometricPrecision; image-rendering:optimizeQuality; fill-rule:evenodd; clip-rule:evenodd"
viewBox="0 0 12.38 12.38"
 xmlns:xlink="http://www.w3.org/1999/xlink">
 <defs>
  <style type="text/css">
   <![CDATA[
    .fil0 {fill:none}
    .fil1 {fill:black;fill-rule:nonzero}
   ]]>
  </style>
 </defs>
 <g id="Camada_x0020_1">
  <metadata id="CorelCorpID_0Corel-Layer"/>
  <g id="_2208225865856">
   <rect class="fil0" width="12.38" height="12.38"/>
   <path class="fil1" d="M3.63 4.45c0,-0.32 0.1,-0.65 0.31,-0.99 0.21,-0.33 0.51,-0.61 0.91,-0.82 0.4,-0.22 0.87,-0.33 1.4,-0.33 0.5,0 0.93,0.09 1.31,0.27 0.38,0.19 0.67,0.43 0.88,0.75 0.21,0.31 0.31,0.66 0.31,1.02 0,0.29 -0.06,0.55 -0.18,0.77 -0.11,0.22 -0.25,0.41 -0.42,0.56 -0.16,0.16 -0.45,0.43 -0.87,0.81 -0.11,0.1 -0.21,0.19 -0.28,0.27 -0.07,0.08 -0.12,0.16 -0.15,0.22 -0.04,0.07 -0.06,0.14 -0.08,0.2 -0.02,0.07 -0.05,0.19 -0.09,0.36 -0.06,0.35 -0.27,0.53 -0.61,0.53 -0.18,0 -0.33,-0.06 -0.45,-0.18 -0.12,-0.11 -0.18,-0.28 -0.18,-0.51 0,-0.29 0.05,-0.54 0.13,-0.75 0.09,-0.21 0.21,-0.39 0.36,-0.55 0.14,-0.16 0.34,-0.35 0.59,-0.57 0.22,-0.19 0.38,-0.33 0.48,-0.43 0.1,-0.1 0.18,-0.21 0.24,-0.33 0.07,-0.12 0.1,-0.25 0.1,-0.39 0,-0.27 -0.1,-0.5 -0.3,-0.69 -0.21,-0.19 -0.47,-0.28 -0.79,-0.28 -0.37,0 -0.65,0.09 -0.83,0.29 -0.18,0.18 -0.33,0.46 -0.45,0.83 -0.12,0.39 -0.34,0.58 -0.66,0.58 -0.19,0 -0.35,-0.07 -0.49,-0.2 -0.13,-0.14 -0.19,-0.28 -0.19,-0.44zm2.5 5.62c-0.21,0 -0.39,-0.07 -0.55,-0.2 -0.15,-0.14 -0.23,-0.33 -0.23,-0.57 0,-0.22 0.07,-0.4 0.22,-0.54 0.15,-0.15 0.34,-0.22 0.56,-0.22 0.21,0 0.39,0.07 0.54,0.22 0.15,0.14 0.22,0.32 0.22,0.54 0,0.24 -0.07,0.43 -0.23,0.56 -0.15,0.14 -0.33,0.21 -0.53,0.21z"/>
  </g>
 </g>
</svg>
