<?xml version="1.0" encoding="UTF-8"?>
<!DOCTYPE svg PUBLIC "-//W3C//DTD SVG 1.1//EN" "http://www.w3.org/Graphics/SVG/1.1/DTD/svg11.dtd">
<!-- Creator: CorelDRAW 2018 (64 Bit Versão de avaliação) -->
<svg xmlns="http://www.w3.org/2000/svg" xml:space="preserve" width="64px" height="244px" version="1.1" style="shape-rendering:geometricPrecision; text-rendering:geometricPrecision; image-rendering:optimizeQuality; fill-rule:evenodd; clip-rule:evenodd"
viewBox="0 0 15.57 59.36"
 xmlns:xlink="http://www.w3.org/1999/xlink">
 <defs>
  <style type="text/css">
   <![CDATA[
    .fil0 {fill:none}
    .fil1 {fill:black}
    .fil2 {fill:#A2A2A2}
   ]]>
  </style>
 </defs>
 <g id="Camada_x0020_1">
  <metadata id="CorelCorpID_0Corel-Layer"/>
  <g id="_2389123649568">
   <rect class="fil0" width="15.57" height="59.36"/>
   <path class="fil1" d="M5.59 25.5l-0.34 0.34c-0.36,0.36 -0.36,0.94 0,1.3l2.63 2.63 -2.63 2.64c-0.36,0.35 -0.36,0.94 0,1.3l0.34 0.34c0.35,0.36 0.94,0.36 1.3,0l3.28 -3.28 0.34 -0.34 0 0 0.02 -0.02 0 0 0.01 -0.02 0 0 0.02 -0.02 0 0 0.01 -0.01 0 0 0.02 -0.02 0 0 0.01 -0.02 0 0 0.01 -0.02 0 0 0.02 -0.02 0 0 0.01 -0.02 0 0 0.01 -0.02c0.13,-0.22 0.16,-0.49 0.09,-0.73l0 0c-0.02,-0.07 -0.05,-0.14 -0.09,-0.2l-0.01 -0.02 0 0 -0.01 -0.02 0 0 -0.02 -0.02 0 0 -0.01 -0.02 0 0 -0.01 -0.02 0 0 -0.02 -0.02 0 0 -0.01 -0.01 0 0 -0.02 -0.02 0 0 -0.01 -0.02 0 0 -0.02 -0.02 0 0 -0.34 -0.34 -3.28 -3.28c-0.36,-0.36 -0.95,-0.36 -1.3,0z"/>
   <path class="fil2" d="M5.49 25.41l-0.34 0.34c-0.35,0.36 -0.35,0.94 0,1.3l2.64 2.63 -2.64 2.63c-0.35,0.36 -0.35,0.95 0,1.31l0.34 0.34c0.36,0.35 0.95,0.35 1.31,0l3.28 -3.29 0.34 -0.34 0 0 0.01 -0.01 0 0 0.02 -0.02 0 0 0.02 -0.02 0 0 0.01 -0.02 0 0 0.01 -0.01 0 0 0.02 -0.02 0 0 0.01 -0.02 0 0 0.01 -0.02 0.01 0 0.01 -0.02 0 0 0.01 -0.02c0.13,-0.22 0.16,-0.49 0.09,-0.73l0 0c-0.02,-0.07 -0.05,-0.14 -0.09,-0.21l-0.01 -0.02 0 0 -0.01 -0.01 -0.01 0 -0.01 -0.02 0 0 -0.01 -0.02 0 0 -0.02 -0.02 0 0 -0.01 -0.02 0 0 -0.01 -0.02 0 0 -0.02 -0.01 0 0 -0.02 -0.02 0 0 -0.01 -0.02 0 0 -0.34 -0.34 -3.28 -3.28c-0.36,-0.36 -0.95,-0.36 -1.31,0z"/>
  </g>
 </g>
</svg>
