<?xml version="1.0" encoding="UTF-8"?>
<!DOCTYPE svg PUBLIC "-//W3C//DTD SVG 1.1//EN" "http://www.w3.org/Graphics/SVG/1.1/DTD/svg11.dtd">
<svg xmlns="http://www.w3.org/2000/svg" xml:space="preserve" width="254px" height="254px" version="1.1" style="shape-rendering:geometricPrecision; text-rendering:geometricPrecision; image-rendering:optimizeQuality; fill-rule:evenodd; clip-rule:evenodd"
viewBox="0 0 259.3 259.3"
 xmlns:xlink="http://www.w3.org/1999/xlink">
 <defs>
  <style type="text/css">
   <![CDATA[
    .fil0 {fill:#333333}
    .fil2 {fill:white}
    .fil1 {fill:white;fill-rule:nonzero}
   ]]>
  </style>
 </defs>
 <g id="Camada_x0020_1">
  <g id="_2090555344384">
   <circle class="fil0" cx="129.65" cy="129.65" r="129.65"/>
   <g>
    <g>
     <path class="fil1" d="M131.16 122.52c0,0.84 1.03,1.27 1.63,0.68 0.18,-0.19 0.28,-0.41 0.28,-0.68l0 -0.96c0,-0.85 -1.03,-1.28 -1.63,-0.68 -0.18,0.19 -0.28,0.41 -0.28,0.68l0 0.96zm-63.15 1.63c0,0.85 1.03,1.28 1.63,0.68 0.18,-0.19 0.28,-0.41 0.28,-0.68l0 -0.96c0,-0.84 -1.03,-1.27 -1.63,-0.68 -0.18,0.2 -0.28,0.42 -0.28,0.68l0 0.96zm0 -4.76c0,0.85 1.03,1.28 1.63,0.68 0.18,-0.19 0.28,-0.41 0.28,-0.68l0 -1.9c0,-0.85 -1.03,-1.28 -1.63,-0.68 -0.18,0.19 -0.28,0.41 -0.28,0.68l0 1.9zm0 -5.7c0,0.85 1.03,1.28 1.63,0.68 0.18,-0.19 0.28,-0.41 0.28,-0.68l0 -1.9c0,-0.85 -1.03,-1.28 -1.63,-0.68 -0.18,0.19 -0.28,0.41 -0.28,0.68l0 1.9zm0 -5.7c0,0.84 1.03,1.27 1.63,0.68 0.18,-0.2 0.28,-0.42 0.28,-0.68l0 -1.91c0,-0.84 -1.03,-1.27 -1.63,-0.68 -0.18,0.2 -0.28,0.42 -0.28,0.68l0 1.91zm0 -5.71c0,0.85 1.03,1.28 1.63,0.68 0.18,-0.19 0.28,-0.41 0.28,-0.68l0 -1.9c0,-0.85 -1.03,-1.28 -1.63,-0.68 -0.18,0.19 -0.28,0.41 -0.28,0.68l0 1.9zm0 -5.7c0,0.85 1.03,1.28 1.63,0.68 0.18,-0.19 0.28,-0.41 0.28,-0.68l0 -1.9c0,-0.85 -1.03,-1.28 -1.63,-0.68 -0.18,0.19 -0.28,0.41 -0.28,0.68l0 1.9zm0 -5.7c0,0.84 1.03,1.27 1.63,0.68 0.18,-0.2 0.28,-0.42 0.28,-0.68l0 -1.9c0,-0.85 -1.03,-1.28 -1.63,-0.69 -0.18,0.2 -0.28,0.42 -0.28,0.69l0 1.9zm0 -5.71c0,0.85 1.03,1.28 1.63,0.68 0.18,-0.19 0.28,-0.41 0.28,-0.68l0 -1.9c0,-0.85 -1.03,-1.28 -1.63,-0.68 -0.18,0.19 -0.28,0.41 -0.28,0.68l0 1.9zm0 -5.7c0,0.85 1.03,1.28 1.63,0.68 0.18,-0.19 0.28,-0.41 0.28,-0.68 0.85,0 1.28,-1.03 0.68,-1.63 -0.19,-0.18 -0.41,-0.28 -0.68,-0.28l-0.95 0c-0.6,0 -0.99,0.5 -0.96,1.01l0 0.9zm5.74 -1.91c-0.85,0 -1.28,1.03 -0.68,1.63 0.19,0.18 0.41,0.28 0.68,0.28l1.91 0c0.85,0 1.28,-1.03 0.68,-1.63 -0.19,-0.18 -0.41,-0.28 -0.68,-0.28l-1.91 0zm5.74 0c-0.85,0 -1.28,1.03 -0.68,1.63 0.19,0.18 0.41,0.28 0.68,0.28l1.91 0c0.85,0 1.28,-1.03 0.68,-1.63 -0.19,-0.18 -0.41,-0.28 -0.68,-0.28l-1.91 0zm5.74 0c-0.85,0 -1.28,1.03 -0.68,1.63 0.19,0.18 0.41,0.28 0.68,0.28l1.91 0c0.85,0 1.28,-1.03 0.69,-1.63 -0.2,-0.18 -0.42,-0.28 -0.69,-0.28l-1.91 0zm5.74 0c-0.85,0 -1.28,1.03 -0.68,1.63 0.19,0.18 0.41,0.28 0.68,0.28l1.92 0c0.84,0 1.27,-1.03 0.68,-1.63 -0.2,-0.18 -0.42,-0.28 -0.68,-0.28l-1.92 0zm5.74 0c-0.84,0 -1.27,1.03 -0.68,1.63 0.19,0.18 0.41,0.28 0.68,0.28l1.92 0c0.84,0 1.27,-1.03 0.68,-1.63 -0.19,-0.18 -0.42,-0.28 -0.68,-0.28l-1.92 0zm5.74 0c-0.84,0 -1.27,1.03 -0.68,1.63 0.2,0.18 0.42,0.28 0.68,0.28l1.92 0c0.85,0 1.28,-1.03 0.68,-1.63 -0.19,-0.18 -0.41,-0.28 -0.68,-0.28l-1.92 0zm5.74 0c-0.84,0 -1.27,1.03 -0.68,1.63 0.2,0.18 0.42,0.28 0.68,0.28l1.92 0c0.85,0 1.28,-1.03 0.68,-1.63 -0.19,-0.18 -0.41,-0.28 -0.68,-0.28l-1.92 0zm5.75 0c-0.85,0 -1.28,1.03 -0.69,1.63 0.2,0.18 0.42,0.28 0.69,0.28l1.91 0c0.85,0 1.28,-1.03 0.68,-1.63 -0.19,-0.18 -0.41,-0.28 -0.68,-0.28l-1.91 0zm5.74 0c-0.85,0 -1.28,1.03 -0.68,1.63 0.19,0.18 0.41,0.28 0.68,0.28l1.91 0c0.85,0 1.28,-1.03 0.68,-1.63 -0.19,-0.18 -0.41,-0.28 -0.68,-0.28l-1.91 0zm5.74 0c-0.85,0 -1.28,1.03 -0.68,1.63 0.19,0.18 0.41,0.28 0.68,0.28l1.91 0c0.85,0 1.28,-1.03 0.68,-1.63 -0.19,-0.18 -0.41,-0.28 -0.68,-0.28l-1.91 0zm5.74 0c-0.85,0 -1.28,1.03 -0.68,1.63 0.19,0.18 0.41,0.28 0.68,0.28 0,0.85 1.03,1.28 1.63,0.68 0.18,-0.19 0.28,-0.41 0.28,-0.68l0 -0.96c0,-0.59 -0.51,-0.98 -1.01,-0.95l-0.9 0zm1.91 5.57c0,-0.85 -1.03,-1.28 -1.63,-0.68 -0.18,0.19 -0.28,0.41 -0.28,0.68l0 1.83c0,0.85 1.03,1.28 1.63,0.68 0.18,-0.19 0.28,-0.41 0.28,-0.68l0 -1.83zm0 5.49c0,-0.85 -1.03,-1.28 -1.63,-0.68 -0.18,0.19 -0.28,0.41 -0.28,0.68l0 1.83c0,0.85 1.03,1.28 1.63,0.68 0.18,-0.19 0.28,-0.41 0.28,-0.68l0 -1.83zm0 5.49c0,-0.85 -1.03,-1.28 -1.63,-0.68 -0.18,0.19 -0.28,0.41 -0.28,0.68l0 1.83c0,0.85 1.03,1.28 1.63,0.68 0.18,-0.19 0.28,-0.41 0.28,-0.68l0 -1.83zm0 5.49c0,-0.85 -1.03,-1.28 -1.63,-0.68 -0.18,0.19 -0.28,0.41 -0.28,0.68l0 1.83c0,0.85 1.03,1.28 1.63,0.68 0.18,-0.19 0.28,-0.41 0.28,-0.68l0 -1.83zm0 5.49c0,-0.85 -1.03,-1.28 -1.63,-0.68 -0.18,0.19 -0.28,0.41 -0.28,0.68l0 1.83c0,0.85 1.03,1.28 1.63,0.68 0.18,-0.19 0.28,-0.41 0.28,-0.68l0 -1.83zm0 5.49c0,-0.85 -1.03,-1.28 -1.63,-0.68 -0.18,0.19 -0.28,0.41 -0.28,0.68l0 1.83c0,0.85 1.03,1.28 1.63,0.68 0.18,-0.19 0.28,-0.41 0.28,-0.68l0 -1.83zm0 5.49c0,-0.85 -1.03,-1.28 -1.63,-0.68 -0.18,0.19 -0.28,0.41 -0.28,0.68l0 1.83c0,0.85 1.03,1.28 1.63,0.68 0.18,-0.19 0.28,-0.41 0.28,-0.68l0 -1.83zm-71.17 18.63c0,0.84 1.04,1.27 1.63,0.68 0.19,-0.2 0.29,-0.42 0.29,-0.68l0 -0.96c0,-0.85 -1.03,-1.28 -1.63,-0.68 -0.19,0.19 -0.29,0.41 -0.29,0.68l0 0.96zm75.36 -12.18c0,0.84 1.04,1.27 1.63,0.68 0.19,-0.19 0.29,-0.41 0.29,-0.68l0 -0.96c0,-0.85 -1.04,-1.28 -1.63,-0.68 -0.19,0.19 -0.29,0.41 -0.29,0.68l0 0.96zm0 -4.61c0,0.85 1.04,1.28 1.63,0.68 0.19,-0.19 0.29,-0.41 0.29,-0.68l0 -1.83c0,-0.85 -1.04,-1.28 -1.63,-0.68 -0.19,0.19 -0.29,0.41 -0.29,0.68l0 1.83zm0 -5.48c0,0.85 1.04,1.28 1.63,0.68 0.19,-0.19 0.29,-0.41 0.29,-0.68l0 -1.83c0,-0.85 -1.04,-1.27 -1.63,-0.68 -0.19,0.19 -0.29,0.41 -0.29,0.68l0 1.83zm0 -5.48c0,0.85 1.04,1.28 1.63,0.68 0.19,-0.19 0.29,-0.41 0.29,-0.68l0 -1.83c0,-0.84 -1.04,-1.27 -1.63,-0.68 -0.19,0.2 -0.29,0.42 -0.29,0.68l0 1.83zm0 -5.48c0,0.85 1.04,1.28 1.63,0.68 0.19,-0.19 0.29,-0.41 0.29,-0.68l0 -1.82c0,-0.85 -1.04,-1.28 -1.63,-0.69 -0.19,0.2 -0.29,0.42 -0.29,0.69l0 1.82zm0 -5.48c0,0.85 1.04,1.28 1.63,0.68 0.19,-0.19 0.29,-0.41 0.29,-0.68l0 -1.82c0,-0.85 -1.04,-1.28 -1.63,-0.68 -0.19,0.19 -0.29,0.41 -0.29,0.68l0 1.82zm0 -5.48c0,0.85 1.04,1.28 1.63,0.69 0.19,-0.2 0.29,-0.42 0.29,-0.69l0 -1.82c0,-0.85 -1.04,-1.28 -1.63,-0.68 -0.19,0.19 -0.29,0.41 -0.29,0.68l0 1.82zm0 -5.47c0,0.84 1.04,1.27 1.63,0.68 0.19,-0.2 0.29,-0.42 0.29,-0.68l0 -1.83c0,-0.85 -1.04,-1.28 -1.63,-0.68 -0.19,0.19 -0.29,0.41 -0.29,0.68l0 1.83zm0 -5.48c0,0.85 1.04,1.28 1.63,0.68 0.19,-0.19 0.29,-0.41 0.29,-0.68l0 -1.92c0,-0.84 -1.04,-1.27 -1.63,-0.68 -0.19,0.19 -0.29,0.42 -0.29,0.68l0 1.92zm0 -4.04c0,0.85 1.04,1.28 1.63,0.68 0.19,-0.19 0.29,-0.41 0.29,-0.68 0,-0.72 0.01,-1.39 -0.05,-2.1 -0.1,-1.07 -1.64,-1.21 -1.89,-0.11 -0.02,0.09 -0.03,0.18 -0.02,0.28 0.06,0.64 0.04,1.28 0.04,1.93zm-1.05 -5.69c0.47,0.97 1.95,0.56 1.81,-0.56 -0.02,-0.09 -0.04,-0.18 -0.08,-0.26 -0.33,-0.7 -0.71,-1.34 -1.15,-1.98 -0.21,-0.28 -0.49,-0.41 -0.84,-0.4 -0.75,0.05 -1.15,0.89 -0.72,1.5 0.38,0.55 0.7,1.1 0.98,1.7zm-3.74 -4.45c0.84,0.56 1.85,-0.35 1.39,-1.24 -0.08,-0.15 -0.16,-0.23 -0.3,-0.33 -0.62,-0.44 -1.28,-0.82 -1.97,-1.15 -0.27,-0.13 -0.57,-0.11 -0.84,0.01 -0.71,0.37 -0.7,1.38 0.03,1.72 0.6,0.29 1.15,0.61 1.69,0.99zm-5.45 -2c0.42,0.04 0.83,-0.21 0.97,-0.6 0.23,-0.61 -0.17,-1.24 -0.81,-1.31 -0.71,-0.05 -1.38,-0.04 -2.1,-0.04 -0.84,0 -1.27,1.03 -0.68,1.63 0.19,0.18 0.41,0.28 0.68,0.28 0.67,0 1.29,-0.01 1.94,0.04zm-5.71 -0.04c0.85,0 1.28,-1.03 0.68,-1.63 -0.19,-0.18 -0.41,-0.28 -0.68,-0.28l-1.89 0c-0.85,0 -1.28,1.03 -0.68,1.63 0.19,0.18 0.41,0.28 0.68,0.28l1.89 0zm-5.67 0c0.85,0 1.28,-1.03 0.68,-1.63 -0.19,-0.18 -0.41,-0.28 -0.68,-0.28l-1.88 0c-0.85,0 -1.28,1.03 -0.69,1.63 0.2,0.18 0.42,0.28 0.69,0.28l1.88 0zm-5.66 0c0.85,0 1.28,-1.03 0.68,-1.63 -0.19,-0.18 -0.41,-0.28 -0.68,-0.28l-1.89 0c-0.85,0 -1.28,1.03 -0.68,1.63 0.19,0.18 0.41,0.28 0.68,0.28l1.89 0zm-5.66 0c0.84,0 1.27,-1.03 0.68,-1.63 -0.2,-0.18 -0.42,-0.28 -0.68,-0.28l-1.89 0c-0.85,0 -1.28,1.03 -0.68,1.63 0.19,0.18 0.41,0.28 0.68,0.28l1.89 0zm-5.67 0c0.85,0 1.28,-1.03 0.68,-1.63 -0.19,-0.18 -0.41,-0.28 -0.68,-0.28l-1.89 0c-0.84,0 -1.27,1.03 -0.68,1.63 0.2,0.18 0.42,0.28 0.68,0.28l1.89 0zm-5.66 0c0.85,0 1.28,-1.03 0.68,-1.63 -0.19,-0.18 -0.41,-0.28 -0.68,-0.28l-1.89 0c-0.85,0 -1.28,1.03 -0.68,1.63 0.19,0.18 0.41,0.28 0.68,0.28l1.89 0zm-5.66 0c0.84,0 1.27,-1.03 0.68,-1.63 -0.2,-0.18 -0.42,-0.28 -0.68,-0.28l-1.89 0c-0.85,0 -1.28,1.03 -0.68,1.63 0.19,0.18 0.41,0.28 0.68,0.28l1.89 0zm-5.67 0c0.85,0 1.28,-1.03 0.68,-1.63 -0.19,-0.18 -0.41,-0.28 -0.68,-0.28l-1.89 0c-0.84,0 -1.27,1.03 -0.68,1.63 0.2,0.18 0.42,0.28 0.68,0.28l1.89 0zm-5.66 0c0.85,0 1.28,-1.03 0.68,-1.63 -0.19,-0.18 -0.41,-0.28 -0.68,-0.28 -0.72,0 -1.39,-0.02 -2.1,0.05 -1.08,0.1 -1.2,1.63 -0.12,1.88 0.09,0.02 0.18,0.03 0.28,0.02 0.65,-0.05 1.28,-0.04 1.94,-0.04zm-5.69 1.05c0.97,-0.46 0.56,-1.95 -0.56,-1.81 -0.09,0.02 -0.18,0.04 -0.26,0.09 -0.7,0.32 -1.35,0.7 -1.98,1.14 -0.28,0.21 -0.41,0.5 -0.4,0.84 0.05,0.75 0.89,1.16 1.5,0.73 0.54,-0.38 1.11,-0.71 1.7,-0.99zm-4.45 3.74c0.55,-0.83 -0.33,-1.83 -1.21,-1.4 -0.16,0.08 -0.26,0.17 -0.36,0.31 -0.45,0.63 -0.82,1.28 -1.15,1.97 -0.41,0.85 0.58,1.73 1.38,1.22 0.16,-0.1 0.27,-0.24 0.35,-0.4 0.29,-0.6 0.61,-1.16 0.99,-1.7zm-2 5.45c0.04,-0.41 -0.22,-0.82 -0.6,-0.97 -0.61,-0.23 -1.25,0.17 -1.31,0.81 -0.06,0.71 -0.05,1.38 -0.05,2.1 0,0.85 1.04,1.28 1.63,0.68 0.19,-0.19 0.29,-0.41 0.29,-0.68 0,-0.66 -0.01,-1.28 0.04,-1.94zm-0.04 4.06c0,-0.84 -1.03,-1.27 -1.63,-0.68 -0.19,0.19 -0.29,0.42 -0.29,0.68l0 1.92c0,0.84 1.04,1.27 1.63,0.68 0.19,-0.2 0.29,-0.42 0.29,-0.68l0 -1.92zm0 5.65c0,-0.84 -1.03,-1.27 -1.63,-0.68 -0.19,0.19 -0.29,0.41 -0.29,0.68l0 1.87c0,0.85 1.04,1.28 1.63,0.68 0.19,-0.19 0.29,-0.41 0.29,-0.68l0 -1.87zm0 5.61c0,-0.85 -1.03,-1.28 -1.63,-0.68 -0.19,0.19 -0.29,0.41 -0.29,0.68l0 1.87c0,0.84 1.04,1.27 1.63,0.68 0.19,-0.19 0.29,-0.41 0.29,-0.68l0 -1.87zm0 5.6c0,-0.84 -1.03,-1.27 -1.63,-0.68 -0.19,0.2 -0.29,0.42 -0.29,0.68l0 1.87c0,0.85 1.04,1.28 1.63,0.68 0.19,-0.19 0.29,-0.41 0.29,-0.68l0 -1.87zm0 5.61c0,-0.85 -1.03,-1.28 -1.63,-0.68 -0.19,0.19 -0.29,0.41 -0.29,0.68l0 1.87c0,0.84 1.04,1.27 1.63,0.68 0.19,-0.19 0.29,-0.41 0.29,-0.68l0 -1.87zm0 5.6c0,-0.84 -1.03,-1.27 -1.63,-0.68 -0.19,0.2 -0.29,0.42 -0.29,0.68l0 1.87c0,0.85 1.04,1.28 1.63,0.68 0.19,-0.19 0.29,-0.41 0.29,-0.68l0 -1.87zm0 5.61c0,-0.85 -1.03,-1.28 -1.63,-0.68 -0.19,0.19 -0.29,0.41 -0.29,0.68l0 1.87c0,0.85 1.04,1.27 1.63,0.68 0.19,-0.19 0.29,-0.41 0.29,-0.68l0 -1.87zm0 5.6c0,-0.84 -1.03,-1.27 -1.63,-0.68 -0.19,0.2 -0.29,0.42 -0.29,0.68l0 1.87c0,0.85 1.04,1.28 1.63,0.68 0.19,-0.19 0.29,-0.41 0.29,-0.68l0 -1.87zm0 5.61c0,-0.85 -1.03,-1.28 -1.63,-0.68 -0.19,0.19 -0.29,0.41 -0.29,0.68l0 1.87c0,0.85 1.04,1.28 1.63,0.68 0.19,-0.19 0.29,-0.41 0.29,-0.68l0 -1.87zm0 5.6c0,-0.84 -1.03,-1.27 -1.63,-0.68 -0.19,0.2 -0.29,0.42 -0.29,0.68l0 1.87c0,0.85 1.04,1.28 1.63,0.68 0.19,-0.19 0.29,-0.41 0.29,-0.68l0 -1.87z"/>
     <path id="auto" class="fil2" d="M93.9 69.11l11.37 0c0.76,0 1.38,0.62 1.38,1.38l0 0c0,0.76 -0.62,1.39 -1.38,1.39l-11.37 0c-0.76,0 -1.38,-0.63 -1.38,-1.39l0 0c0,-0.76 0.62,-1.38 1.38,-1.38z"/>
    </g>
    <path id="phone" class="fil2" d="M181.18 197.88l-107.1 0c-6.7,0 -12.18,-5.49 -12.18,-12.18l0 -51c0,-6.7 5.48,-12.18 12.18,-12.18l107.1 0 4.04 0c6.7,0 12.18,5.48 12.18,12.18l0 51c0,6.69 -5.48,12.18 -12.18,12.18l-4.04 0zm-102.97 -69.26l0 63.15c34.41,0 68.65,0 103.06,0l0 -63.15c-34.41,0 -68.65,0 -103.06,0zm112.46 25.89l0 11.37c0,0.76 -0.62,1.38 -1.38,1.38l0 0c-0.76,0 -1.39,-0.62 -1.39,-1.38l0 -11.37c0,-0.76 0.63,-1.38 1.39,-1.38l0 0c0.76,0 1.38,0.62 1.38,1.38zm-118.05 4.16l0 3.05c0,0.3 -0.13,0.57 -0.32,0.76 -0.19,0.2 -0.46,0.32 -0.76,0.32l-3.05 0c-0.3,0 -0.57,-0.12 -0.76,-0.32 -0.2,-0.19 -0.32,-0.46 -0.32,-0.76l0 -3.05c0,-0.3 0.12,-0.57 0.32,-0.76 0.19,-0.2 0.46,-0.32 0.76,-0.32l3.05 0c0.3,0 0.57,0.12 0.76,0.32 0.19,0.19 0.32,0.46 0.32,0.76zm-0.53 3.05l0 -3.05c0,-0.15 -0.06,-0.29 -0.16,-0.39 -0.1,-0.1 -0.24,-0.17 -0.39,-0.17l-3.05 0c-0.16,0 -0.3,0.07 -0.4,0.17 -0.1,0.1 -0.16,0.24 -0.16,0.39l0 3.05c0,0.16 0.06,0.29 0.16,0.39 0.1,0.11 0.24,0.17 0.4,0.17l3.05 0c0.15,0 0.29,-0.06 0.39,-0.17 0.1,-0.1 0.16,-0.23 0.16,-0.39z"/>
    <path class="fil2" d="M154.38 84.5c10.14,0 18.6,7.15 20.64,16.68l2.65 -5.56 3.52 1.62 -3.4 7.31 0.01 0 -1.63 3.56 -12.49 -3.75 1.11 -3.72 6.35 1.91c-1.44,-7.95 -8.4,-13.98 -16.76,-13.98 -0.88,0 -1.74,0.07 -2.58,0.2l0 -4.11c0.85,-0.1 1.7,-0.16 2.58,-0.16z"/>
   </g>
  </g>
 </g>
</svg>
